<?xml version="1.0" standalone="no"?>
<!DOCTYPE svg PUBLIC "-//W3C//DTD SVG 20010904//EN"
 "http://www.w3.org/TR/2001/REC-SVG-20010904/DTD/svg10.dtd">
<svg version="1.0" xmlns="http://www.w3.org/2000/svg"
 width="650.000000pt" height="250.000000pt" viewBox="0 0 650.000000 250.000000"
 preserveAspectRatio="xMidYMid meet">

<g transform="translate(0.000000,250.000000) scale(0.100000,-0.100000)"
fill="#fff" stroke="none">
<path d="M2595 2053 c-119 -6 -341 -35 -425 -54 -210 -49 -397 -119 -730 -274
-266 -124 -357 -145 -615 -145 l-163 0 -30 -35 c-37 -41 -55 -97 -42 -130 11
-28 36 -32 285 -40 94 -3 182 -8 198 -11 43 -9 36 -47 -17 -100 l-43 -44 -211
0 -211 0 -6 -53 c-11 -88 9 -296 34 -353 39 -88 114 -151 222 -187 43 -15 287
-52 294 -45 2 2 -2 38 -8 81 -27 186 49 358 203 462 91 60 170 85 273 85 302
0 527 -243 502 -542 l-6 -78 1124 0 1123 0 -4 84 c-6 110 11 203 53 285 39 78
78 120 159 173 170 110 383 106 558 -11 154 -103 231 -273 213 -467 l-7 -72
148 5 c284 8 383 70 456 283 33 96 30 179 -8 250 -60 113 -228 240 -391 295
-38 13 -127 35 -198 49 -221 44 -314 54 -800 86 l-150 10 -105 53 c-58 29
-182 92 -277 140 -321 162 -564 248 -783 276 -227 29 -394 36 -615 24z m164
-255 c6 -40 21 -117 33 -171 12 -53 18 -100 14 -104 -3 -4 -95 1 -204 10 -108
9 -242 19 -297 22 -182 11 -405 41 -473 66 -32 11 -33 12 -15 31 45 50 257
133 428 167 93 19 268 38 410 44 33 2 67 4 76 5 13 2 19 -14 28 -70z m371 47
c275 -34 424 -83 750 -246 179 -90 307 -173 318 -206 2 -9 -10 -13 -40 -13
-48 0 -407 43 -498 60 -30 5 -154 19 -275 30 -359 32 -345 30 -350 54 -17 77
-64 286 -70 309 -9 33 -9 33 165 12z m2301 -584 c156 -35 274 -99 320 -175 25
-41 11 -48 -76 -40 -81 7 -170 34 -224 69 -37 22 -151 142 -151 158 0 11 39 8
131 -12z"/>
<path d="M1521 1055 c-70 -20 -107 -43 -163 -103 -66 -71 -91 -145 -85 -249 8
-136 79 -243 202 -304 56 -27 75 -31 143 -31 124 0 191 38 272 154 57 81 75
145 67 235 -20 209 -233 355 -436 298z m154 -188 c56 -27 95 -90 95 -154 0
-52 -43 -128 -82 -144 -57 -24 -111 -18 -154 16 -57 47 -76 89 -70 154 6 66
28 99 85 128 44 22 81 22 126 0z"/>
<path d="M4732 1055 c-70 -20 -87 -29 -145 -84 -55 -51 -74 -83 -93 -156 -18
-65 -17 -108 1 -178 41 -159 178 -268 336 -269 103 -1 163 24 235 97 84 86
107 137 112 251 4 88 3 94 -28 153 -82 154 -256 231 -418 186z m168 -188 c168
-89 76 -356 -106 -305 -110 30 -159 183 -86 270 51 60 121 73 192 35z"/>
<path d="M5489 430 l-215 -5 -75 -68 c-111 -102 -133 -97 437 -97 259 0 486 3
504 6 35 7 70 53 70 90 0 13 -16 36 -36 54 l-36 31 -217 -3 c-119 -2 -313 -5
-432 -8z"/>
<path d="M335 412 c-16 -10 -36 -31 -44 -45 -12 -23 -12 -29 3 -51 38 -58 22
-57 534 -54 561 4 537 -2 437 101 l-66 67 -417 0 c-387 0 -419 -1 -447 -18z"/>
<path d="M1988 365 c-38 -36 -68 -69 -68 -74 0 -29 85 -31 1310 -31 1249 0
1310 2 1310 34 0 6 -28 40 -63 74 l-63 62 -1179 0 -1180 0 -67 -65z"/>
</g>
</svg>
